<svg xmlns="http://www.w3.org/2000/svg" viewBox="0 0 79.36 252.11"><defs><style>.cls-1{fill:#bb2323;}</style></defs><g id="Layer_2" data-name="Layer 2"><g id="Layer_2-2" data-name="Layer 2"><path class="cls-1" d="M44.94,88.76c7-19.17,13.76-37.8,20.52-56.44A15.45,15.45,0,0,0,66,29.79c2.75-15-2.06-25.88-12.88-29S35.05,3.11,28.37,19.16c-1.39-.49-2.86-.9-4.24-1.51C11.42,12,.3,18.72,0,32.63c-.27,13,5.63,23.53,15.08,31.88S34.52,80.35,44.94,88.76Z"/><path class="cls-1" d="M35.44,132c17,10.71,16.65,10.59,9.77,31.25a116.65,116.65,0,0,0-5.3,26.58c-1.25,14.47,5,26.17,16.61,34.76,9.91,7.34,19,15.18,22.84,27.48-1.15-11.23-7.29-19.44-15.65-26.38C43,208.49,39.36,196.64,47.22,171c1.52-5,3.43-9.79,5.1-14.7,4.65-13.63-1.86-19.61-13.86-24.61a10,10,0,0,0-3-1Z"/><path class="cls-1" d="M38.46,131.71c-5-1-4.32-8.37-3-12.19,2.21-6.25,6-11.94,9.1-17.87l-3-1.5c-3.65,7.47-7.71,14.77-10.79,22.47-1.53,3.83.72,9.56,7.61,10.09Z"/></g></g></svg>